<mxfile host="65bd71144e">
    <diagram id="C5RBs43oDa-KdzZeNtuy" name="Page-1">
        <mxGraphModel dx="1040" dy="496" grid="1" gridSize="10" guides="1" tooltips="1" connect="1" arrows="1" fold="1" page="1" pageScale="1" pageWidth="827" pageHeight="1169" math="0" shadow="0">
            <root>
                <mxCell id="WIyWlLk6GJQsqaUBKTNV-0"/>
                <mxCell id="WIyWlLk6GJQsqaUBKTNV-1" parent="WIyWlLk6GJQsqaUBKTNV-0"/>
                <mxCell id="UlnTeUXW9bFIteBgBk3g-49" style="edgeStyle=orthogonalEdgeStyle;rounded=0;orthogonalLoop=1;jettySize=auto;html=1;entryX=0.5;entryY=0;entryDx=0;entryDy=0;endArrow=none;endFill=0;" parent="WIyWlLk6GJQsqaUBKTNV-1" source="UlnTeUXW9bFIteBgBk3g-0" target="UlnTeUXW9bFIteBgBk3g-4" edge="1">
                    <mxGeometry relative="1" as="geometry"/>
                </mxCell>
                <mxCell id="UlnTeUXW9bFIteBgBk3g-0" value="Main" style="swimlane;fontStyle=0;childLayout=stackLayout;horizontal=1;startSize=30;horizontalStack=0;resizeParent=1;resizeParentMax=0;resizeLast=0;collapsible=1;marginBottom=0;whiteSpace=wrap;html=1;" parent="WIyWlLk6GJQsqaUBKTNV-1" vertex="1">
                    <mxGeometry x="50" y="50" width="200" height="120" as="geometry">
                        <mxRectangle x="80" y="70" width="70" height="30" as="alternateBounds"/>
                    </mxGeometry>
                </mxCell>
                <mxCell id="UlnTeUXW9bFIteBgBk3g-1" value="app : QApplication" style="text;strokeColor=none;fillColor=none;align=left;verticalAlign=middle;spacingLeft=4;spacingRight=4;overflow=hidden;points=[[0,0.5],[1,0.5]];portConstraint=eastwest;rotatable=0;whiteSpace=wrap;html=1;" parent="UlnTeUXW9bFIteBgBk3g-0" vertex="1">
                    <mxGeometry y="30" width="200" height="30" as="geometry"/>
                </mxCell>
                <mxCell id="UlnTeUXW9bFIteBgBk3g-2" value="masterMemory : MasterMemory" style="text;strokeColor=none;fillColor=none;align=left;verticalAlign=middle;spacingLeft=4;spacingRight=4;overflow=hidden;points=[[0,0.5],[1,0.5]];portConstraint=eastwest;rotatable=0;whiteSpace=wrap;html=1;" parent="UlnTeUXW9bFIteBgBk3g-0" vertex="1">
                    <mxGeometry y="60" width="200" height="30" as="geometry"/>
                </mxCell>
                <mxCell id="sI5Y6Wk5CKHaaCJfzd3--6" value="mainView : MainWindowView" style="text;strokeColor=none;fillColor=none;align=left;verticalAlign=middle;spacingLeft=4;spacingRight=4;overflow=hidden;points=[[0,0.5],[1,0.5]];portConstraint=eastwest;rotatable=0;whiteSpace=wrap;html=1;" parent="UlnTeUXW9bFIteBgBk3g-0" vertex="1">
                    <mxGeometry y="90" width="200" height="30" as="geometry"/>
                </mxCell>
                <mxCell id="UlnTeUXW9bFIteBgBk3g-8" value="Views" style="swimlane;whiteSpace=wrap;html=1;" parent="WIyWlLk6GJQsqaUBKTNV-1" vertex="1">
                    <mxGeometry x="50" y="200" width="590" height="840" as="geometry"/>
                </mxCell>
                <mxCell id="UlnTeUXW9bFIteBgBk3g-47" style="edgeStyle=orthogonalEdgeStyle;rounded=0;orthogonalLoop=1;jettySize=auto;html=1;endArrow=none;endFill=0;" parent="UlnTeUXW9bFIteBgBk3g-8" source="UlnTeUXW9bFIteBgBk3g-4" target="UlnTeUXW9bFIteBgBk3g-9" edge="1">
                    <mxGeometry relative="1" as="geometry">
                        <Array as="points">
                            <mxPoint x="110" y="140"/>
                            <mxPoint x="110" y="140"/>
                        </Array>
                    </mxGeometry>
                </mxCell>
                <mxCell id="UlnTeUXW9bFIteBgBk3g-4" value="mainWindowView : QMainWindow" style="swimlane;fontStyle=0;childLayout=stackLayout;horizontal=1;startSize=30;horizontalStack=0;resizeParent=1;resizeParentMax=0;resizeLast=0;collapsible=1;marginBottom=0;whiteSpace=wrap;html=1;" parent="UlnTeUXW9bFIteBgBk3g-8" vertex="1">
                    <mxGeometry x="10" y="30" width="203" height="90" as="geometry">
                        <mxRectangle x="30" y="40" width="220" height="30" as="alternateBounds"/>
                    </mxGeometry>
                </mxCell>
                <mxCell id="sI5Y6Wk5CKHaaCJfzd3--17" value="&lt;div&gt;windowMenu : WindowMenuBar&lt;/div&gt;" style="text;html=1;align=center;verticalAlign=middle;resizable=0;points=[];autosize=1;strokeColor=none;fillColor=none;" parent="UlnTeUXW9bFIteBgBk3g-4" vertex="1">
                    <mxGeometry y="30" width="203" height="30" as="geometry"/>
                </mxCell>
                <mxCell id="sI5Y6Wk5CKHaaCJfzd3--18" value="centerBoxWidget : CenterBox" style="text;html=1;align=center;verticalAlign=middle;resizable=0;points=[];autosize=1;strokeColor=none;fillColor=none;" parent="UlnTeUXW9bFIteBgBk3g-4" vertex="1">
                    <mxGeometry y="60" width="203" height="30" as="geometry"/>
                </mxCell>
                <mxCell id="UlnTeUXW9bFIteBgBk3g-60" style="edgeStyle=orthogonalEdgeStyle;rounded=0;orthogonalLoop=1;jettySize=auto;html=1;entryX=0.5;entryY=0;entryDx=0;entryDy=0;endArrow=none;endFill=0;" parent="UlnTeUXW9bFIteBgBk3g-8" source="UlnTeUXW9bFIteBgBk3g-21" target="UlnTeUXW9bFIteBgBk3g-56" edge="1">
                    <mxGeometry relative="1" as="geometry"/>
                </mxCell>
                <mxCell id="UlnTeUXW9bFIteBgBk3g-61" style="edgeStyle=orthogonalEdgeStyle;rounded=0;orthogonalLoop=1;jettySize=auto;html=1;entryX=0.5;entryY=0;entryDx=0;entryDy=0;endArrow=none;endFill=0;" parent="UlnTeUXW9bFIteBgBk3g-8" source="UlnTeUXW9bFIteBgBk3g-21" target="UlnTeUXW9bFIteBgBk3g-52" edge="1">
                    <mxGeometry relative="1" as="geometry"/>
                </mxCell>
                <mxCell id="UlnTeUXW9bFIteBgBk3g-21" value="ControlAreaView" style="swimlane;fontStyle=0;childLayout=stackLayout;horizontal=1;startSize=30;horizontalStack=0;resizeParent=1;resizeParentMax=0;resizeLast=0;collapsible=1;marginBottom=0;whiteSpace=wrap;html=1;" parent="UlnTeUXW9bFIteBgBk3g-8" vertex="1">
                    <mxGeometry x="10" y="360" width="200" height="90" as="geometry"/>
                </mxCell>
                <mxCell id="UlnTeUXW9bFIteBgBk3g-22" value="mainControls : MainControlsView" style="text;strokeColor=none;fillColor=none;align=left;verticalAlign=middle;spacingLeft=4;spacingRight=4;overflow=hidden;points=[[0,0.5],[1,0.5]];portConstraint=eastwest;rotatable=0;whiteSpace=wrap;html=1;" parent="UlnTeUXW9bFIteBgBk3g-21" vertex="1">
                    <mxGeometry y="30" width="200" height="30" as="geometry"/>
                </mxCell>
                <mxCell id="sI5Y6Wk5CKHaaCJfzd3--20" value="labelDataWidget : LabelDataView" style="text;strokeColor=none;fillColor=none;align=left;verticalAlign=middle;spacingLeft=4;spacingRight=4;overflow=hidden;points=[[0,0.5],[1,0.5]];portConstraint=eastwest;rotatable=0;whiteSpace=wrap;html=1;" parent="UlnTeUXW9bFIteBgBk3g-21" vertex="1">
                    <mxGeometry y="60" width="200" height="30" as="geometry"/>
                </mxCell>
                <mxCell id="UlnTeUXW9bFIteBgBk3g-45" style="edgeStyle=orthogonalEdgeStyle;rounded=0;orthogonalLoop=1;jettySize=auto;html=1;entryX=0.5;entryY=0;entryDx=0;entryDy=0;endArrow=none;endFill=0;" parent="UlnTeUXW9bFIteBgBk3g-8" source="UlnTeUXW9bFIteBgBk3g-9" target="UlnTeUXW9bFIteBgBk3g-21" edge="1">
                    <mxGeometry relative="1" as="geometry">
                        <Array as="points">
                            <mxPoint x="100" y="310"/>
                            <mxPoint x="100" y="310"/>
                        </Array>
                    </mxGeometry>
                </mxCell>
                <mxCell id="UlnTeUXW9bFIteBgBk3g-9" value="CenterBox : QSplitter" style="swimlane;fontStyle=0;childLayout=stackLayout;horizontal=1;startSize=30;horizontalStack=0;resizeParent=1;resizeParentMax=0;resizeLast=0;collapsible=1;marginBottom=0;whiteSpace=wrap;html=1;" parent="UlnTeUXW9bFIteBgBk3g-8" vertex="1">
                    <mxGeometry x="10" y="200" width="200" height="90" as="geometry"/>
                </mxCell>
                <mxCell id="UlnTeUXW9bFIteBgBk3g-10" value="controlArea : ControlAreaView" style="text;strokeColor=none;fillColor=none;align=left;verticalAlign=middle;spacingLeft=4;spacingRight=4;overflow=hidden;points=[[0,0.5],[1,0.5]];portConstraint=eastwest;rotatable=0;whiteSpace=wrap;html=1;" parent="UlnTeUXW9bFIteBgBk3g-9" vertex="1">
                    <mxGeometry y="30" width="200" height="30" as="geometry"/>
                </mxCell>
                <mxCell id="sI5Y6Wk5CKHaaCJfzd3--19" value="mediaArea : MediaAreaView" style="text;strokeColor=none;fillColor=none;align=left;verticalAlign=middle;spacingLeft=4;spacingRight=4;overflow=hidden;points=[[0,0.5],[1,0.5]];portConstraint=eastwest;rotatable=0;whiteSpace=wrap;html=1;" parent="UlnTeUXW9bFIteBgBk3g-9" vertex="1">
                    <mxGeometry y="60" width="200" height="30" as="geometry"/>
                </mxCell>
                <mxCell id="UlnTeUXW9bFIteBgBk3g-109" style="edgeStyle=orthogonalEdgeStyle;rounded=0;orthogonalLoop=1;jettySize=auto;html=1;endArrow=none;endFill=0;exitX=1;exitY=0.5;exitDx=0;exitDy=0;entryX=0;entryY=0.5;entryDx=0;entryDy=0;entryPerimeter=0;" parent="UlnTeUXW9bFIteBgBk3g-8" source="sI5Y6Wk5CKHaaCJfzd3--12" target="UlnTeUXW9bFIteBgBk3g-170" edge="1">
                    <mxGeometry relative="1" as="geometry">
                        <mxPoint x="400" y="260" as="targetPoint"/>
                        <mxPoint x="350" y="230" as="sourcePoint"/>
                    </mxGeometry>
                </mxCell>
                <mxCell id="UlnTeUXW9bFIteBgBk3g-111" style="edgeStyle=orthogonalEdgeStyle;rounded=0;orthogonalLoop=1;jettySize=auto;html=1;endArrow=none;endFill=0;" parent="UlnTeUXW9bFIteBgBk3g-8" source="UlnTeUXW9bFIteBgBk3g-52" edge="1">
                    <mxGeometry relative="1" as="geometry">
                        <mxPoint x="240" y="690" as="targetPoint"/>
                    </mxGeometry>
                </mxCell>
                <mxCell id="UlnTeUXW9bFIteBgBk3g-52" value="LabelDataView" style="swimlane;fontStyle=0;childLayout=stackLayout;horizontal=1;startSize=30;horizontalStack=0;resizeParent=1;resizeParentMax=0;resizeLast=0;collapsible=1;marginBottom=0;whiteSpace=wrap;html=1;" parent="UlnTeUXW9bFIteBgBk3g-8" vertex="1">
                    <mxGeometry x="171" y="520" width="140" height="60" as="geometry"/>
                </mxCell>
                <mxCell id="UlnTeUXW9bFIteBgBk3g-53" value="Item 1" style="text;strokeColor=none;fillColor=none;align=left;verticalAlign=middle;spacingLeft=4;spacingRight=4;overflow=hidden;points=[[0,0.5],[1,0.5]];portConstraint=eastwest;rotatable=0;whiteSpace=wrap;html=1;" parent="UlnTeUXW9bFIteBgBk3g-52" vertex="1">
                    <mxGeometry y="30" width="140" height="30" as="geometry"/>
                </mxCell>
                <mxCell id="UlnTeUXW9bFIteBgBk3g-110" style="edgeStyle=orthogonalEdgeStyle;rounded=0;orthogonalLoop=1;jettySize=auto;html=1;endArrow=none;endFill=0;" parent="UlnTeUXW9bFIteBgBk3g-8" source="UlnTeUXW9bFIteBgBk3g-56" edge="1">
                    <mxGeometry relative="1" as="geometry">
                        <mxPoint x="90" y="690" as="targetPoint"/>
                    </mxGeometry>
                </mxCell>
                <mxCell id="UlnTeUXW9bFIteBgBk3g-56" value="MainControlsView" style="swimlane;fontStyle=0;childLayout=stackLayout;horizontal=1;startSize=30;horizontalStack=0;resizeParent=1;resizeParentMax=0;resizeLast=0;collapsible=1;marginBottom=0;whiteSpace=wrap;html=1;" parent="UlnTeUXW9bFIteBgBk3g-8" vertex="1">
                    <mxGeometry x="20" y="520" width="140" height="60" as="geometry"/>
                </mxCell>
                <mxCell id="UlnTeUXW9bFIteBgBk3g-57" value="Item 1" style="text;strokeColor=none;fillColor=none;align=left;verticalAlign=middle;spacingLeft=4;spacingRight=4;overflow=hidden;points=[[0,0.5],[1,0.5]];portConstraint=eastwest;rotatable=0;whiteSpace=wrap;html=1;" parent="UlnTeUXW9bFIteBgBk3g-56" vertex="1">
                    <mxGeometry y="30" width="140" height="30" as="geometry"/>
                </mxCell>
                <mxCell id="UlnTeUXW9bFIteBgBk3g-112" style="edgeStyle=orthogonalEdgeStyle;rounded=0;orthogonalLoop=1;jettySize=auto;html=1;endArrow=none;endFill=0;" parent="UlnTeUXW9bFIteBgBk3g-8" source="UlnTeUXW9bFIteBgBk3g-29" edge="1">
                    <mxGeometry relative="1" as="geometry">
                        <mxPoint x="520" y="580" as="targetPoint"/>
                    </mxGeometry>
                </mxCell>
                <mxCell id="UlnTeUXW9bFIteBgBk3g-29" value="CanvasView" style="swimlane;fontStyle=0;childLayout=stackLayout;horizontal=1;startSize=30;horizontalStack=0;resizeParent=1;resizeParentMax=0;resizeLast=0;collapsible=1;marginBottom=0;whiteSpace=wrap;html=1;" parent="UlnTeUXW9bFIteBgBk3g-8" vertex="1">
                    <mxGeometry x="350" y="520" width="140" height="60" as="geometry"/>
                </mxCell>
                <mxCell id="UlnTeUXW9bFIteBgBk3g-30" value="Item 1" style="text;strokeColor=none;fillColor=none;align=left;verticalAlign=middle;spacingLeft=4;spacingRight=4;overflow=hidden;points=[[0,0.5],[1,0.5]];portConstraint=eastwest;rotatable=0;whiteSpace=wrap;html=1;" parent="UlnTeUXW9bFIteBgBk3g-29" vertex="1">
                    <mxGeometry y="30" width="140" height="30" as="geometry"/>
                </mxCell>
                <mxCell id="UlnTeUXW9bFIteBgBk3g-42" style="edgeStyle=orthogonalEdgeStyle;rounded=0;orthogonalLoop=1;jettySize=auto;html=1;entryX=0.5;entryY=0;entryDx=0;entryDy=0;endArrow=none;endFill=0;" parent="UlnTeUXW9bFIteBgBk3g-8" target="UlnTeUXW9bFIteBgBk3g-29" edge="1">
                    <mxGeometry relative="1" as="geometry">
                        <mxPoint x="420" y="420" as="sourcePoint"/>
                    </mxGeometry>
                </mxCell>
                <mxCell id="UlnTeUXW9bFIteBgBk3g-46" style="edgeStyle=orthogonalEdgeStyle;rounded=0;orthogonalLoop=1;jettySize=auto;html=1;endArrow=none;endFill=0;" parent="UlnTeUXW9bFIteBgBk3g-8" source="UlnTeUXW9bFIteBgBk3g-9" edge="1">
                    <mxGeometry relative="1" as="geometry">
                        <Array as="points">
                            <mxPoint x="100" y="340"/>
                            <mxPoint x="420" y="340"/>
                        </Array>
                        <mxPoint x="420" y="420" as="targetPoint"/>
                    </mxGeometry>
                </mxCell>
                <mxCell id="UlnTeUXW9bFIteBgBk3g-164" value="Main&lt;div&gt;Controls&lt;/div&gt;&lt;div&gt;Presenter&lt;/div&gt;" style="shape=note;whiteSpace=wrap;html=1;backgroundOutline=1;darkOpacity=0.05;size=10;" parent="UlnTeUXW9bFIteBgBk3g-8" vertex="1">
                    <mxGeometry x="60" y="690" width="60" height="50" as="geometry"/>
                </mxCell>
                <mxCell id="UlnTeUXW9bFIteBgBk3g-168" value="Canvas&lt;div&gt;Presenter&lt;/div&gt;" style="shape=note;whiteSpace=wrap;html=1;backgroundOutline=1;darkOpacity=0.05;size=11;" parent="UlnTeUXW9bFIteBgBk3g-8" vertex="1">
                    <mxGeometry x="520" y="555" width="60" height="50" as="geometry"/>
                </mxCell>
                <mxCell id="UlnTeUXW9bFIteBgBk3g-169" value="Label&lt;br&gt;Data&lt;br&gt;Presenter" style="shape=note;whiteSpace=wrap;html=1;backgroundOutline=1;darkOpacity=0.05;size=11;" parent="UlnTeUXW9bFIteBgBk3g-8" vertex="1">
                    <mxGeometry x="210" y="690" width="60" height="50" as="geometry"/>
                </mxCell>
                <mxCell id="UlnTeUXW9bFIteBgBk3g-170" value="&lt;div&gt;Window&lt;/div&gt;&lt;div&gt;Menubar&lt;/div&gt;&lt;div&gt;Presenter&lt;/div&gt;" style="shape=note;whiteSpace=wrap;html=1;backgroundOutline=1;darkOpacity=0.05;size=11;" parent="UlnTeUXW9bFIteBgBk3g-8" vertex="1">
                    <mxGeometry x="420" y="130" width="60" height="50" as="geometry"/>
                </mxCell>
                <mxCell id="sI5Y6Wk5CKHaaCJfzd3--11" value="WindowMenuBar : QMenuBar" style="swimlane;fontStyle=0;childLayout=stackLayout;horizontal=1;startSize=30;horizontalStack=0;resizeParent=1;resizeParentMax=0;resizeLast=0;collapsible=1;marginBottom=0;whiteSpace=wrap;html=1;" parent="UlnTeUXW9bFIteBgBk3g-8" vertex="1">
                    <mxGeometry x="224" y="110" width="140" height="180" as="geometry"/>
                </mxCell>
                <mxCell id="sI5Y6Wk5CKHaaCJfzd3--12" value="CreateNewProject()" style="text;strokeColor=none;fillColor=none;align=left;verticalAlign=middle;spacingLeft=4;spacingRight=4;overflow=hidden;points=[[0,0.5],[1,0.5]];portConstraint=eastwest;rotatable=0;whiteSpace=wrap;html=1;" parent="sI5Y6Wk5CKHaaCJfzd3--11" vertex="1">
                    <mxGeometry y="30" width="140" height="30" as="geometry"/>
                </mxCell>
                <mxCell id="sI5Y6Wk5CKHaaCJfzd3--13" value="OpenImage()" style="text;strokeColor=none;fillColor=none;align=left;verticalAlign=middle;spacingLeft=4;spacingRight=4;overflow=hidden;points=[[0,0.5],[1,0.5]];portConstraint=eastwest;rotatable=0;whiteSpace=wrap;html=1;" parent="sI5Y6Wk5CKHaaCJfzd3--11" vertex="1">
                    <mxGeometry y="60" width="140" height="30" as="geometry"/>
                </mxCell>
                <mxCell id="sI5Y6Wk5CKHaaCJfzd3--14" value="ImportLabels()" style="text;strokeColor=none;fillColor=none;align=left;verticalAlign=middle;spacingLeft=4;spacingRight=4;overflow=hidden;points=[[0,0.5],[1,0.5]];portConstraint=eastwest;rotatable=0;whiteSpace=wrap;html=1;" parent="sI5Y6Wk5CKHaaCJfzd3--11" vertex="1">
                    <mxGeometry y="90" width="140" height="30" as="geometry"/>
                </mxCell>
                <mxCell id="sI5Y6Wk5CKHaaCJfzd3--15" value="ExportLabels()" style="text;strokeColor=none;fillColor=none;align=left;verticalAlign=middle;spacingLeft=4;spacingRight=4;overflow=hidden;points=[[0,0.5],[1,0.5]];portConstraint=eastwest;rotatable=0;whiteSpace=wrap;html=1;" parent="sI5Y6Wk5CKHaaCJfzd3--11" vertex="1">
                    <mxGeometry y="120" width="140" height="30" as="geometry"/>
                </mxCell>
                <mxCell id="sI5Y6Wk5CKHaaCJfzd3--16" value="CloseApplication()" style="text;strokeColor=none;fillColor=none;align=left;verticalAlign=middle;spacingLeft=4;spacingRight=4;overflow=hidden;points=[[0,0.5],[1,0.5]];portConstraint=eastwest;rotatable=0;whiteSpace=wrap;html=1;" parent="sI5Y6Wk5CKHaaCJfzd3--11" vertex="1">
                    <mxGeometry y="150" width="140" height="30" as="geometry"/>
                </mxCell>
                <mxCell id="UlnTeUXW9bFIteBgBk3g-48" style="edgeStyle=orthogonalEdgeStyle;rounded=0;orthogonalLoop=1;jettySize=auto;html=1;entryX=0.5;entryY=0;entryDx=0;entryDy=0;endArrow=none;endFill=0;" parent="UlnTeUXW9bFIteBgBk3g-8" source="UlnTeUXW9bFIteBgBk3g-4" target="sI5Y6Wk5CKHaaCJfzd3--11" edge="1">
                    <mxGeometry relative="1" as="geometry">
                        <Array as="points">
                            <mxPoint x="294" y="70"/>
                        </Array>
                        <mxPoint x="287.9799999999998" y="201.67999999999995" as="targetPoint"/>
                    </mxGeometry>
                </mxCell>
                <mxCell id="UlnTeUXW9bFIteBgBk3g-108" value="Presenters" style="swimlane;whiteSpace=wrap;html=1;" parent="WIyWlLk6GJQsqaUBKTNV-1" vertex="1">
                    <mxGeometry x="760" y="200" width="240" height="840" as="geometry"/>
                </mxCell>
                <mxCell id="UlnTeUXW9bFIteBgBk3g-114" value="WindowMenubarPresenter" style="swimlane;fontStyle=0;childLayout=stackLayout;horizontal=1;startSize=30;horizontalStack=0;resizeParent=1;resizeParentMax=0;resizeLast=0;collapsible=1;marginBottom=0;whiteSpace=wrap;html=1;" parent="UlnTeUXW9bFIteBgBk3g-108" vertex="1">
                    <mxGeometry x="40" y="40" width="160" height="120" as="geometry"/>
                </mxCell>
                <mxCell id="UlnTeUXW9bFIteBgBk3g-115" value="Item 1" style="text;strokeColor=none;fillColor=none;align=left;verticalAlign=middle;spacingLeft=4;spacingRight=4;overflow=hidden;points=[[0,0.5],[1,0.5]];portConstraint=eastwest;rotatable=0;whiteSpace=wrap;html=1;" parent="UlnTeUXW9bFIteBgBk3g-114" vertex="1">
                    <mxGeometry y="30" width="160" height="30" as="geometry"/>
                </mxCell>
                <mxCell id="UlnTeUXW9bFIteBgBk3g-116" value="Item 2" style="text;strokeColor=none;fillColor=none;align=left;verticalAlign=middle;spacingLeft=4;spacingRight=4;overflow=hidden;points=[[0,0.5],[1,0.5]];portConstraint=eastwest;rotatable=0;whiteSpace=wrap;html=1;" parent="UlnTeUXW9bFIteBgBk3g-114" vertex="1">
                    <mxGeometry y="60" width="160" height="30" as="geometry"/>
                </mxCell>
                <mxCell id="UlnTeUXW9bFIteBgBk3g-117" value="Item 3" style="text;strokeColor=none;fillColor=none;align=left;verticalAlign=middle;spacingLeft=4;spacingRight=4;overflow=hidden;points=[[0,0.5],[1,0.5]];portConstraint=eastwest;rotatable=0;whiteSpace=wrap;html=1;" parent="UlnTeUXW9bFIteBgBk3g-114" vertex="1">
                    <mxGeometry y="90" width="160" height="30" as="geometry"/>
                </mxCell>
                <mxCell id="UlnTeUXW9bFIteBgBk3g-118" value="LabelDataPresenter" style="swimlane;fontStyle=0;childLayout=stackLayout;horizontal=1;startSize=30;horizontalStack=0;resizeParent=1;resizeParentMax=0;resizeLast=0;collapsible=1;marginBottom=0;whiteSpace=wrap;html=1;" parent="UlnTeUXW9bFIteBgBk3g-108" vertex="1">
                    <mxGeometry x="40" y="200" width="160" height="120" as="geometry"/>
                </mxCell>
                <mxCell id="UlnTeUXW9bFIteBgBk3g-119" value="Item 1" style="text;strokeColor=none;fillColor=none;align=left;verticalAlign=middle;spacingLeft=4;spacingRight=4;overflow=hidden;points=[[0,0.5],[1,0.5]];portConstraint=eastwest;rotatable=0;whiteSpace=wrap;html=1;" parent="UlnTeUXW9bFIteBgBk3g-118" vertex="1">
                    <mxGeometry y="30" width="160" height="30" as="geometry"/>
                </mxCell>
                <mxCell id="UlnTeUXW9bFIteBgBk3g-120" value="Item 2" style="text;strokeColor=none;fillColor=none;align=left;verticalAlign=middle;spacingLeft=4;spacingRight=4;overflow=hidden;points=[[0,0.5],[1,0.5]];portConstraint=eastwest;rotatable=0;whiteSpace=wrap;html=1;" parent="UlnTeUXW9bFIteBgBk3g-118" vertex="1">
                    <mxGeometry y="60" width="160" height="30" as="geometry"/>
                </mxCell>
                <mxCell id="UlnTeUXW9bFIteBgBk3g-121" value="Item 3" style="text;strokeColor=none;fillColor=none;align=left;verticalAlign=middle;spacingLeft=4;spacingRight=4;overflow=hidden;points=[[0,0.5],[1,0.5]];portConstraint=eastwest;rotatable=0;whiteSpace=wrap;html=1;" parent="UlnTeUXW9bFIteBgBk3g-118" vertex="1">
                    <mxGeometry y="90" width="160" height="30" as="geometry"/>
                </mxCell>
                <mxCell id="UlnTeUXW9bFIteBgBk3g-122" value="CanvasPresenter" style="swimlane;fontStyle=0;childLayout=stackLayout;horizontal=1;startSize=30;horizontalStack=0;resizeParent=1;resizeParentMax=0;resizeLast=0;collapsible=1;marginBottom=0;whiteSpace=wrap;html=1;" parent="UlnTeUXW9bFIteBgBk3g-108" vertex="1">
                    <mxGeometry x="40" y="360" width="160" height="120" as="geometry"/>
                </mxCell>
                <mxCell id="UlnTeUXW9bFIteBgBk3g-123" value="Item 1" style="text;strokeColor=none;fillColor=none;align=left;verticalAlign=middle;spacingLeft=4;spacingRight=4;overflow=hidden;points=[[0,0.5],[1,0.5]];portConstraint=eastwest;rotatable=0;whiteSpace=wrap;html=1;" parent="UlnTeUXW9bFIteBgBk3g-122" vertex="1">
                    <mxGeometry y="30" width="160" height="30" as="geometry"/>
                </mxCell>
                <mxCell id="UlnTeUXW9bFIteBgBk3g-124" value="Item 2" style="text;strokeColor=none;fillColor=none;align=left;verticalAlign=middle;spacingLeft=4;spacingRight=4;overflow=hidden;points=[[0,0.5],[1,0.5]];portConstraint=eastwest;rotatable=0;whiteSpace=wrap;html=1;" parent="UlnTeUXW9bFIteBgBk3g-122" vertex="1">
                    <mxGeometry y="60" width="160" height="30" as="geometry"/>
                </mxCell>
                <mxCell id="UlnTeUXW9bFIteBgBk3g-125" value="Item 3" style="text;strokeColor=none;fillColor=none;align=left;verticalAlign=middle;spacingLeft=4;spacingRight=4;overflow=hidden;points=[[0,0.5],[1,0.5]];portConstraint=eastwest;rotatable=0;whiteSpace=wrap;html=1;" parent="UlnTeUXW9bFIteBgBk3g-122" vertex="1">
                    <mxGeometry y="90" width="160" height="30" as="geometry"/>
                </mxCell>
                <mxCell id="UlnTeUXW9bFIteBgBk3g-130" value="MainControlsPresenter" style="swimlane;fontStyle=0;childLayout=stackLayout;horizontal=1;startSize=30;horizontalStack=0;resizeParent=1;resizeParentMax=0;resizeLast=0;collapsible=1;marginBottom=0;whiteSpace=wrap;html=1;" parent="UlnTeUXW9bFIteBgBk3g-108" vertex="1">
                    <mxGeometry x="40" y="530" width="160" height="120" as="geometry"/>
                </mxCell>
                <mxCell id="UlnTeUXW9bFIteBgBk3g-131" value="Item 1" style="text;strokeColor=none;fillColor=none;align=left;verticalAlign=middle;spacingLeft=4;spacingRight=4;overflow=hidden;points=[[0,0.5],[1,0.5]];portConstraint=eastwest;rotatable=0;whiteSpace=wrap;html=1;" parent="UlnTeUXW9bFIteBgBk3g-130" vertex="1">
                    <mxGeometry y="30" width="160" height="30" as="geometry"/>
                </mxCell>
                <mxCell id="UlnTeUXW9bFIteBgBk3g-132" value="Item 2" style="text;strokeColor=none;fillColor=none;align=left;verticalAlign=middle;spacingLeft=4;spacingRight=4;overflow=hidden;points=[[0,0.5],[1,0.5]];portConstraint=eastwest;rotatable=0;whiteSpace=wrap;html=1;" parent="UlnTeUXW9bFIteBgBk3g-130" vertex="1">
                    <mxGeometry y="60" width="160" height="30" as="geometry"/>
                </mxCell>
                <mxCell id="UlnTeUXW9bFIteBgBk3g-133" value="Item 3" style="text;strokeColor=none;fillColor=none;align=left;verticalAlign=middle;spacingLeft=4;spacingRight=4;overflow=hidden;points=[[0,0.5],[1,0.5]];portConstraint=eastwest;rotatable=0;whiteSpace=wrap;html=1;" parent="UlnTeUXW9bFIteBgBk3g-130" vertex="1">
                    <mxGeometry y="90" width="160" height="30" as="geometry"/>
                </mxCell>
                <mxCell id="UlnTeUXW9bFIteBgBk3g-134" value="Model" style="swimlane;whiteSpace=wrap;html=1;" parent="WIyWlLk6GJQsqaUBKTNV-1" vertex="1">
                    <mxGeometry x="1080" y="200" width="400" height="840" as="geometry"/>
                </mxCell>
                <mxCell id="UlnTeUXW9bFIteBgBk3g-135" value="MasterMemory" style="swimlane;fontStyle=0;childLayout=stackLayout;horizontal=1;startSize=30;horizontalStack=0;resizeParent=1;resizeParentMax=0;resizeLast=0;collapsible=1;marginBottom=0;whiteSpace=wrap;html=1;" parent="UlnTeUXW9bFIteBgBk3g-134" vertex="1">
                    <mxGeometry x="30" y="40" width="140" height="120" as="geometry"/>
                </mxCell>
                <mxCell id="UlnTeUXW9bFIteBgBk3g-136" value="Item 1" style="text;strokeColor=none;fillColor=none;align=left;verticalAlign=middle;spacingLeft=4;spacingRight=4;overflow=hidden;points=[[0,0.5],[1,0.5]];portConstraint=eastwest;rotatable=0;whiteSpace=wrap;html=1;" parent="UlnTeUXW9bFIteBgBk3g-135" vertex="1">
                    <mxGeometry y="30" width="140" height="30" as="geometry"/>
                </mxCell>
                <mxCell id="UlnTeUXW9bFIteBgBk3g-137" value="Item 2" style="text;strokeColor=none;fillColor=none;align=left;verticalAlign=middle;spacingLeft=4;spacingRight=4;overflow=hidden;points=[[0,0.5],[1,0.5]];portConstraint=eastwest;rotatable=0;whiteSpace=wrap;html=1;" parent="UlnTeUXW9bFIteBgBk3g-135" vertex="1">
                    <mxGeometry y="60" width="140" height="30" as="geometry"/>
                </mxCell>
                <mxCell id="UlnTeUXW9bFIteBgBk3g-138" value="Item 3" style="text;strokeColor=none;fillColor=none;align=left;verticalAlign=middle;spacingLeft=4;spacingRight=4;overflow=hidden;points=[[0,0.5],[1,0.5]];portConstraint=eastwest;rotatable=0;whiteSpace=wrap;html=1;" parent="UlnTeUXW9bFIteBgBk3g-135" vertex="1">
                    <mxGeometry y="90" width="140" height="30" as="geometry"/>
                </mxCell>
                <mxCell id="UlnTeUXW9bFIteBgBk3g-139" value="WindowMenuBarModel" style="swimlane;fontStyle=0;childLayout=stackLayout;horizontal=1;startSize=30;horizontalStack=0;resizeParent=1;resizeParentMax=0;resizeLast=0;collapsible=1;marginBottom=0;whiteSpace=wrap;html=1;" parent="UlnTeUXW9bFIteBgBk3g-134" vertex="1">
                    <mxGeometry x="30" y="200" width="140" height="120" as="geometry"/>
                </mxCell>
                <mxCell id="UlnTeUXW9bFIteBgBk3g-140" value="Item 1" style="text;strokeColor=none;fillColor=none;align=left;verticalAlign=middle;spacingLeft=4;spacingRight=4;overflow=hidden;points=[[0,0.5],[1,0.5]];portConstraint=eastwest;rotatable=0;whiteSpace=wrap;html=1;" parent="UlnTeUXW9bFIteBgBk3g-139" vertex="1">
                    <mxGeometry y="30" width="140" height="30" as="geometry"/>
                </mxCell>
                <mxCell id="UlnTeUXW9bFIteBgBk3g-141" value="Item 2" style="text;strokeColor=none;fillColor=none;align=left;verticalAlign=middle;spacingLeft=4;spacingRight=4;overflow=hidden;points=[[0,0.5],[1,0.5]];portConstraint=eastwest;rotatable=0;whiteSpace=wrap;html=1;" parent="UlnTeUXW9bFIteBgBk3g-139" vertex="1">
                    <mxGeometry y="60" width="140" height="30" as="geometry"/>
                </mxCell>
                <mxCell id="UlnTeUXW9bFIteBgBk3g-142" value="Item 3" style="text;strokeColor=none;fillColor=none;align=left;verticalAlign=middle;spacingLeft=4;spacingRight=4;overflow=hidden;points=[[0,0.5],[1,0.5]];portConstraint=eastwest;rotatable=0;whiteSpace=wrap;html=1;" parent="UlnTeUXW9bFIteBgBk3g-139" vertex="1">
                    <mxGeometry y="90" width="140" height="30" as="geometry"/>
                </mxCell>
                <mxCell id="UlnTeUXW9bFIteBgBk3g-143" value="LabelData" style="swimlane;fontStyle=0;childLayout=stackLayout;horizontal=1;startSize=30;horizontalStack=0;resizeParent=1;resizeParentMax=0;resizeLast=0;collapsible=1;marginBottom=0;whiteSpace=wrap;html=1;" parent="UlnTeUXW9bFIteBgBk3g-134" vertex="1">
                    <mxGeometry x="30" y="360" width="140" height="120" as="geometry"/>
                </mxCell>
                <mxCell id="UlnTeUXW9bFIteBgBk3g-144" value="Item 1" style="text;strokeColor=none;fillColor=none;align=left;verticalAlign=middle;spacingLeft=4;spacingRight=4;overflow=hidden;points=[[0,0.5],[1,0.5]];portConstraint=eastwest;rotatable=0;whiteSpace=wrap;html=1;" parent="UlnTeUXW9bFIteBgBk3g-143" vertex="1">
                    <mxGeometry y="30" width="140" height="30" as="geometry"/>
                </mxCell>
                <mxCell id="UlnTeUXW9bFIteBgBk3g-145" value="Item 2" style="text;strokeColor=none;fillColor=none;align=left;verticalAlign=middle;spacingLeft=4;spacingRight=4;overflow=hidden;points=[[0,0.5],[1,0.5]];portConstraint=eastwest;rotatable=0;whiteSpace=wrap;html=1;" parent="UlnTeUXW9bFIteBgBk3g-143" vertex="1">
                    <mxGeometry y="60" width="140" height="30" as="geometry"/>
                </mxCell>
                <mxCell id="UlnTeUXW9bFIteBgBk3g-146" value="Item 3" style="text;strokeColor=none;fillColor=none;align=left;verticalAlign=middle;spacingLeft=4;spacingRight=4;overflow=hidden;points=[[0,0.5],[1,0.5]];portConstraint=eastwest;rotatable=0;whiteSpace=wrap;html=1;" parent="UlnTeUXW9bFIteBgBk3g-143" vertex="1">
                    <mxGeometry y="90" width="140" height="30" as="geometry"/>
                </mxCell>
                <mxCell id="UlnTeUXW9bFIteBgBk3g-147" value="CanvasModel" style="swimlane;fontStyle=0;childLayout=stackLayout;horizontal=1;startSize=30;horizontalStack=0;resizeParent=1;resizeParentMax=0;resizeLast=0;collapsible=1;marginBottom=0;whiteSpace=wrap;html=1;" parent="UlnTeUXW9bFIteBgBk3g-134" vertex="1">
                    <mxGeometry x="30" y="520" width="140" height="120" as="geometry"/>
                </mxCell>
                <mxCell id="UlnTeUXW9bFIteBgBk3g-148" value="Item 1" style="text;strokeColor=none;fillColor=none;align=left;verticalAlign=middle;spacingLeft=4;spacingRight=4;overflow=hidden;points=[[0,0.5],[1,0.5]];portConstraint=eastwest;rotatable=0;whiteSpace=wrap;html=1;" parent="UlnTeUXW9bFIteBgBk3g-147" vertex="1">
                    <mxGeometry y="30" width="140" height="30" as="geometry"/>
                </mxCell>
                <mxCell id="UlnTeUXW9bFIteBgBk3g-149" value="Item 2" style="text;strokeColor=none;fillColor=none;align=left;verticalAlign=middle;spacingLeft=4;spacingRight=4;overflow=hidden;points=[[0,0.5],[1,0.5]];portConstraint=eastwest;rotatable=0;whiteSpace=wrap;html=1;" parent="UlnTeUXW9bFIteBgBk3g-147" vertex="1">
                    <mxGeometry y="60" width="140" height="30" as="geometry"/>
                </mxCell>
                <mxCell id="UlnTeUXW9bFIteBgBk3g-150" value="Item 3" style="text;strokeColor=none;fillColor=none;align=left;verticalAlign=middle;spacingLeft=4;spacingRight=4;overflow=hidden;points=[[0,0.5],[1,0.5]];portConstraint=eastwest;rotatable=0;whiteSpace=wrap;html=1;" parent="UlnTeUXW9bFIteBgBk3g-147" vertex="1">
                    <mxGeometry y="90" width="140" height="30" as="geometry"/>
                </mxCell>
                <mxCell id="UlnTeUXW9bFIteBgBk3g-158" style="edgeStyle=orthogonalEdgeStyle;rounded=0;orthogonalLoop=1;jettySize=auto;html=1;entryX=-0.006;entryY=0.142;entryDx=0;entryDy=0;entryPerimeter=0;" parent="WIyWlLk6GJQsqaUBKTNV-1" source="UlnTeUXW9bFIteBgBk3g-114" target="UlnTeUXW9bFIteBgBk3g-139" edge="1">
                    <mxGeometry relative="1" as="geometry"/>
                </mxCell>
                <mxCell id="UlnTeUXW9bFIteBgBk3g-159" style="edgeStyle=orthogonalEdgeStyle;rounded=0;orthogonalLoop=1;jettySize=auto;html=1;entryX=-0.006;entryY=0.148;entryDx=0;entryDy=0;entryPerimeter=0;" parent="WIyWlLk6GJQsqaUBKTNV-1" source="UlnTeUXW9bFIteBgBk3g-118" target="UlnTeUXW9bFIteBgBk3g-143" edge="1">
                    <mxGeometry relative="1" as="geometry"/>
                </mxCell>
                <mxCell id="UlnTeUXW9bFIteBgBk3g-160" style="edgeStyle=orthogonalEdgeStyle;rounded=0;orthogonalLoop=1;jettySize=auto;html=1;entryX=-0.006;entryY=0.155;entryDx=0;entryDy=0;entryPerimeter=0;" parent="WIyWlLk6GJQsqaUBKTNV-1" source="UlnTeUXW9bFIteBgBk3g-122" target="UlnTeUXW9bFIteBgBk3g-147" edge="1">
                    <mxGeometry relative="1" as="geometry"/>
                </mxCell>
                <mxCell id="UlnTeUXW9bFIteBgBk3g-173" value="Main&lt;div&gt;Controls&lt;/div&gt;&lt;div&gt;Presenter&lt;/div&gt;" style="shape=note;whiteSpace=wrap;html=1;backgroundOutline=1;darkOpacity=0.05;size=10;" parent="WIyWlLk6GJQsqaUBKTNV-1" vertex="1">
                    <mxGeometry x="680" y="760" width="60" height="50" as="geometry"/>
                </mxCell>
                <mxCell id="UlnTeUXW9bFIteBgBk3g-175" value="Canvas&lt;div&gt;Presenter&lt;/div&gt;" style="shape=note;whiteSpace=wrap;html=1;backgroundOutline=1;darkOpacity=0.05;size=10;" parent="WIyWlLk6GJQsqaUBKTNV-1" vertex="1">
                    <mxGeometry x="680" y="595" width="60" height="50" as="geometry"/>
                </mxCell>
                <mxCell id="UlnTeUXW9bFIteBgBk3g-176" value="Label&lt;div&gt;Data&lt;/div&gt;&lt;div&gt;Presenter&lt;/div&gt;" style="shape=note;whiteSpace=wrap;html=1;backgroundOutline=1;darkOpacity=0.05;size=10;" parent="WIyWlLk6GJQsqaUBKTNV-1" vertex="1">
                    <mxGeometry x="680" y="440" width="60" height="50" as="geometry"/>
                </mxCell>
                <mxCell id="UlnTeUXW9bFIteBgBk3g-177" value="Window&lt;div&gt;Menu&lt;/div&gt;&lt;div&gt;Bar&lt;/div&gt;" style="shape=note;whiteSpace=wrap;html=1;backgroundOutline=1;darkOpacity=0.05;size=10;" parent="WIyWlLk6GJQsqaUBKTNV-1" vertex="1">
                    <mxGeometry x="680" y="280" width="60" height="50" as="geometry"/>
                </mxCell>
                <mxCell id="UlnTeUXW9bFIteBgBk3g-178" style="edgeStyle=orthogonalEdgeStyle;rounded=0;orthogonalLoop=1;jettySize=auto;html=1;entryX=0.25;entryY=0;entryDx=0;entryDy=0;endArrow=none;endFill=0;" parent="WIyWlLk6GJQsqaUBKTNV-1" source="UlnTeUXW9bFIteBgBk3g-1" target="UlnTeUXW9bFIteBgBk3g-135" edge="1">
                    <mxGeometry relative="1" as="geometry"/>
                </mxCell>
                <mxCell id="UlnTeUXW9bFIteBgBk3g-181" style="edgeStyle=orthogonalEdgeStyle;rounded=0;orthogonalLoop=1;jettySize=auto;html=1;entryX=1.007;entryY=0.404;entryDx=0;entryDy=0;entryPerimeter=0;endArrow=none;endFill=0;" parent="WIyWlLk6GJQsqaUBKTNV-1" source="UlnTeUXW9bFIteBgBk3g-130" target="UlnTeUXW9bFIteBgBk3g-173" edge="1">
                    <mxGeometry relative="1" as="geometry">
                        <Array as="points">
                            <mxPoint x="770" y="785"/>
                            <mxPoint x="770" y="780"/>
                        </Array>
                    </mxGeometry>
                </mxCell>
                <mxCell id="UlnTeUXW9bFIteBgBk3g-184" style="edgeStyle=orthogonalEdgeStyle;rounded=0;orthogonalLoop=1;jettySize=auto;html=1;endArrow=none;endFill=0;" parent="WIyWlLk6GJQsqaUBKTNV-1" source="UlnTeUXW9bFIteBgBk3g-122" target="UlnTeUXW9bFIteBgBk3g-175" edge="1">
                    <mxGeometry relative="1" as="geometry">
                        <Array as="points">
                            <mxPoint x="770" y="620"/>
                            <mxPoint x="770" y="620"/>
                        </Array>
                    </mxGeometry>
                </mxCell>
                <mxCell id="UlnTeUXW9bFIteBgBk3g-186" style="edgeStyle=orthogonalEdgeStyle;rounded=0;orthogonalLoop=1;jettySize=auto;html=1;entryX=0.98;entryY=0.404;entryDx=0;entryDy=0;entryPerimeter=0;endArrow=none;endFill=0;" parent="WIyWlLk6GJQsqaUBKTNV-1" source="UlnTeUXW9bFIteBgBk3g-118" target="UlnTeUXW9bFIteBgBk3g-176" edge="1">
                    <mxGeometry relative="1" as="geometry">
                        <Array as="points">
                            <mxPoint x="780" y="460"/>
                            <mxPoint x="780" y="460"/>
                        </Array>
                    </mxGeometry>
                </mxCell>
                <mxCell id="UlnTeUXW9bFIteBgBk3g-187" style="edgeStyle=orthogonalEdgeStyle;rounded=0;orthogonalLoop=1;jettySize=auto;html=1;entryX=0.953;entryY=0.388;entryDx=0;entryDy=0;entryPerimeter=0;endArrow=none;endFill=0;" parent="WIyWlLk6GJQsqaUBKTNV-1" source="UlnTeUXW9bFIteBgBk3g-114" target="UlnTeUXW9bFIteBgBk3g-177" edge="1">
                    <mxGeometry relative="1" as="geometry"/>
                </mxCell>
            </root>
        </mxGraphModel>
    </diagram>
</mxfile>